#!OML:ASF I:\Actors\actors\Patient Classification 2\Patient 1\Session 1\actor1.ASF
:FULLY-SPECIFIED
:DEGREES
68
root -0.690184 18.6876 5.82783 3.37446 -4.75824 -1.48313
lowerback -1.65846 1.26759 -0.565093
upperback -3.06293 1.69386 0.182223
thorax -2.23277 0.861164 0.497382
lowerneck -9.70958 -1.50648 -1.51579
upperneck 25.2467 -2.58146 2.89423
head 9.61802 -1.03518 0.975901
rclavicle 1.76546e-014 -1.39149e-015
rhumerus -52.1754 -8.16204 -83.0033
rradius 44.6748
rwrist 21.3666
rhand -4.12683 -33.2749
rfingers 7.12502
rthumb 21.6322 -62.0865
lclavicle 1.76546e-014 -1.39149e-015
lhumerus -43.592 4.71105 88.8076
lradius 37.5576
lwrist -8.53449
lhand -3.26588 -22.6138
lfingers 7.12502
lthumb 22.4588 6.10034
rfemur 0 0 0
rtibia 0
rfoot 0 0
rtoes 0
lfemur -3.81048 -8.16335 -13.4388
ltibia 20.3628
lfoot -27.2094 18.5823
ltoes -53.5608
69
root -0.689572 18.6879 5.82691 3.37382 -4.74092 -1.48257
lowerback -1.64074 1.27974 -0.545161
upperback -3.06098 1.70963 0.162871
thorax -2.23972 0.868368 0.465936
lowerneck -9.72846 -1.51499 -1.47741
upperneck 25.2649 -2.59153 2.85575
head 9.62737 -1.04004 0.954819
rclavicle 2.76932e-014 9.74045e-015
rhumerus -52.1984 -8.17602 -83.0113
rradius 44.6904
rwrist 21.2902
rhand -3.12709 -33.6422
rfingers 7.12502
rthumb 22.592 -62.3402
lclavicle 2.76932e-014 9.74045e-015
lhumerus -43.5974 4.68048 88.8172
lradius 37.5746
lwrist -8.55027
lhand -3.29979 -22.5047
lfingers 7.12502
lthumb 22.4262 6.21336
rfemur 0 0 0
rtibia 0
rfoot 0 0
rtoes 0
lfemur -3.81162 -8.13817 -13.4316
ltibia 20.3509
lfoot -27.1657 18.5346
ltoes -53.5071
70
root -0.689303 18.688 5.82577 3.36055 -4.74049 -1.45561
lowerback -1.6166 1.29082 -0.564725
upperback -3.06005 1.72388 0.136868
thorax -2.25228 0.875623 0.449578
lowerneck -9.74058 -1.51909 -1.43953
upperneck 25.2927 -2.60224 2.84261
head 9.63918 -1.04252 0.942632
rclavicle -2.16675e-014 2.98177e-015
rhumerus -52.2179 -8.17354 -83.0365
rradius 44.687
rwrist 21.2499
rhand -4.33905 -33.1075
rfingers 7.12502
rthumb 21.4283 -61.9425
lclavicle -2.16675e-014 2.98177e-015
lhumerus -43.6008 4.71301 88.777
lradius 37.5609
lwrist -8.6663
lhand -3.31682 -22.5407
lfingers 7.12502
lthumb 22.4099 6.17929
rfemur 0 0 0
rtibia 0
rfoot 0 0
rtoes 0
lfemur -3.7943 -8.1367 -13.4602
ltibia 20.34
lfoot -27.1672 18.4508
ltoes -53.3963
71
root -0.688484 18.688 5.82382 3.36112 -4.74759 -1.41913
lowerback -1.60806 1.29353 -0.58977
upperback -3.06051 1.727 0.108907
thorax -2.25747 0.877393 0.434695
lowerneck -9.72572 -1.51487 -1.39827
upperneck 25.2888 -2.60399 2.84031
head 9.63444 -1.03987 0.934672
rclavicle 1.70706e-014 -3.37934e-015
rhumerus -52.2128 -8.18456 -83.0532
rradius 44.66
rwrist 21.2788
rhand -5.46435 -32.6417
rfingers 7.12502
rthumb 20.3472 -61.5958
lclavicle 1.70706e-014 -3.37934e-015
lhumerus -43.6057 4.75679 88.726
lradius 37.5388
lwrist -8.73187
lhand -3.34525 -22.6368
lfingers 7.12502
lthumb 22.3826 6.08654
rfemur 0 0 0
rtibia 0
rfoot 0 0
rtoes 0
lfemur -3.79931 -8.124 -13.5039
ltibia 20.3289
lfoot -27.1386 18.461
ltoes -53.405
72
root -0.687482 18.6883 5.8218 3.37991 -4.74565 -1.4004
lowerback -1.59815 1.29544 -0.591414
upperback -3.07216 1.72917 0.0919213
thorax -2.27458 0.878366 0.417773
lowerneck -9.69824 -1.50579 -1.43069
upperneck 25.2652 -2.6007 2.90557
head 9.62203 -1.0347 0.963342
rclavicle -6.47293e-015 5.56597e-015
rhumerus -52.2207 -8.22628 -83.0281
rradius 44.6367
rwrist 21.329
rhand -5.45921 -32.5818
rfingers 7.12502
rthumb 20.3521 -61.5354
lclavicle -6.47293e-015 5.56597e-015
lhumerus -43.643 4.73382 88.7246
lradius 37.5633
lwrist -8.67249
lhand -3.36558 -22.671
lfingers 7.12502
lthumb 22.3631 6.05465
rfemur 0 0 0
rtibia 0
rfoot 0 0
rtoes 0
lfemur -3.82444 -8.14073 -13.5263
ltibia 20.3158
lfoot -27.1196 18.5525
ltoes -53.4811
73
root -0.687451 18.6883 5.82125 3.37468 -4.74148 -1.3959
lowerback -1.58402 1.30039 -0.594343
upperback -3.06826 1.73568 0.0895419
thorax -2.27859 0.881655 0.416641
lowerneck -9.69834 -1.49293 -1.47157
upperneck 25.2397 -2.58801 2.96318
head 9.61395 -1.02649 0.991649
rclavicle -1.43622e-014 1.98785e-016
rhumerus -52.2425 -8.24259 -83
rradius 44.6495
rwrist 21.3364
rhand -5.41356 -32.4482
rfingers 7.12502
rthumb 20.396 -61.397
lclavicle -1.43622e-014 1.98785e-016
lhumerus -43.6943 4.68306 88.757
lradius 37.6431
lwrist -8.59322
lhand -3.36384 -22.647
lfingers 7.12502
lthumb 22.3647 6.07843
rfemur 0 0 0
rtibia 0
rfoot 0 0
rtoes 0
lfemur -3.81966 -8.13006 -13.527
ltibia 20.3061
lfoot -27.1363 18.5717
ltoes -53.5512
74
root -0.687703 18.6883 5.82028 3.36967 -4.72747 -1.38883
lowerback -1.57418 1.30044 -0.610686
upperback -3.06317 1.73564 0.0855788
thorax -2.27925 0.881944 0.421545
lowerneck -9.7061 -1.48773 -1.44869
upperneck 25.2308 -2.58497 2.96373
head 9.61193 -1.0228 0.988188
rclavicle -1.67725e-014 -3.97569e-016
rhumerus -52.2576 -8.24189 -83.0012
rradius 44.6596
rwrist 21.3311
rhand -5.41802 -32.3806
rfingers 7.12502
rthumb 20.3917 -61.33
lclavicle -1.67725e-014 -3.97569e-016
lhumerus -43.7419 4.64672 88.7692
lradius 37.7231
lwrist -8.52589
lhand -3.31848 -22.6447
lfingers 7.12502
lthumb 22.4083 6.0755
rfemur 0 0 0
rtibia 0
rfoot 0 0
rtoes 0
lfemur -3.82284 -8.10535 -13.5286
ltibia 20.302
lfoot -27.1263 18.5493
ltoes -53.597
75
root -0.687292 18.6889 5.81929 3.3671 -4.71166 -1.38208
lowerback -1.56845 1.30015 -0.620209
upperback -3.06201 1.73511 0.0782744
thorax -2.28132 0.881802 0.41926
lowerneck -9.70249 -1.49966 -1.419
upperneck 25.2477 -2.60318 2.94335
head 9.61708 -1.03061 0.974106
rclavicle -4.74598e-015 1.59028e-015
rhumerus -52.2768 -8.27181 -83.0004
rradius 44.6692
rwrist 21.3653
rhand -5.47048 -32.3854
rfingers 7.12502
rthumb 20.3413 -61.3401
lclavicle -4.74598e-015 1.59028e-015
lhumerus -43.7591 4.66315 88.745
lradius 37.7293
lwrist -8.49755
lhand -3.26162 -22.6819
lfingers 7.12502
lthumb 22.4629 6.03172
rfemur 0 0 0
rtibia 0
rfoot 0 0
rtoes 0
lfemur -3.82112 -8.19137 -13.5438
ltibia 20.3021
lfoot -27.1785 18.5832
ltoes -53.5597
76
root -0.686389 18.6894 5.81939 3.35328 -4.70879 -1.38338
lowerback -1.58142 1.30832 -0.614022
upperback -3.04421 1.74607 0.0749659
thorax -2.25554 0.886995 0.412963
lowerneck -9.69609 -1.51843 -1.39472
upperneck 25.255 -2.62285 2.89661
head 9.61798 -1.04256 0.951606
rclavicle 1.16041e-014 -5.56597e-015
rhumerus -52.2942 -8.31094 -82.9771
rradius 44.7104
rwrist 21.4031
rhand -4.34865 -32.8722
rfingers 7.12502
rthumb 21.4191 -61.7082
lclavicle 1.16041e-014 -5.56597e-015
lhumerus -43.7369 4.68702 88.7349
lradius 37.702
lwrist -8.50763
lhand -3.25481 -22.6637
lfingers 7.12502
lthumb 22.4694 6.04915
rfemur 0 0 0
rtibia 0
rfoot 0 0
rtoes 0
lfemur -3.79552 -8.30051 -13.557
ltibia 20.3059
lfoot -27.2873 18.6112
ltoes -53.4751
77
root -0.686171 18.6893 5.81872 3.3447 -4.69542 -1.40176
lowerback -1.5934 1.31357 -0.601333
upperback -3.02611 1.75332 0.0834537
thorax -2.23015 0.890348 0.41512
lowerneck -9.69084 -1.53858 -1.4075
upperneck 25.2584 -2.6478 2.8925
head 9.61896 -1.05582 0.949632
rclavicle -3.91357e-015 -8.74653e-015
rhumerus -52.3016 -8.28742 -82.9572
rradius 44.7828
rwrist 21.3427
rhand -3.12832 -33.4927
rfingers 7.12502
rthumb 22.5908 -62.1908
lclavicle -3.91357e-015 -8.74653e-015
lhumerus -43.7167 4.69344 88.7481
lradius 37.6906
lwrist -8.52767
lhand -3.25759 -22.6007
lfingers 7.12502
lthumb 22.4667 6.11244
rfemur 0 0 0
rtibia 0
rfoot 0 0
rtoes 0
lfemur -3.78055 -8.33903 -13.5382
ltibia 20.3111
lfoot -27.3373 18.5567
ltoes -53.3423
78
root -0.686494 18.6888 5.81796 3.33472 -4.66078 -1.39828
lowerback -1.5855 1.30434 -0.617922
upperback -3.02385 1.74113 0.0905901
thorax -2.23284 0.884717 0.431593
lowerneck -9.68531 -1.54806 -1.44779
upperneck 25.2976 -2.66445 2.93153
head 9.63337 -1.06285 0.968425
rclavicle -2.11333e-014 -3.18055e-015
rhumerus -52.3657 -8.18347 -82.9746
rradius 44.9161
rwrist 21.1437
rhand -4.2186 -33.115
rfingers 7.12502
rthumb 21.544 -61.9367
lclavicle -2.11333e-014 -3.18055e-015
lhumerus -43.7313 4.71986 88.7454
lradius 37.6933
lwrist -8.56491
lhand -3.24652 -22.6061
lfingers 7.12502
lthumb 22.4774 6.10576
rfemur 0 0 0
rtibia 0
rfoot 0 0
rtoes 0
lfemur -3.78239 -8.32307 -13.5327
ltibia 20.314
lfoot -27.294 18.4711
ltoes -53.2255
79
root -0.68616 18.6884 5.81758 3.31607 -4.62318 -1.35973
lowerback -1.56256 1.28915 -0.655265
upperback -3.02374 1.7206 0.0810863
thorax -2.24618 0.875195 0.442252
lowerneck -9.67825 -1.54553 -1.45516
upperneck 25.3369 -2.66194 2.93625
head 9.64611 -1.06163 0.971827
rclavicle 1.46355e-014 -4.37326e-015
rhumerus -52.4895 -7.99671 -83.0533
rradius 45.1205
rwrist 20.8538
rhand -4.78414 -32.7843
rfingers 7.12502
rthumb 21.0008 -61.6673
lclavicle 1.46355e-014 -4.37326e-015
lhumerus -43.7519 4.72761 88.7286
lradius 37.6975
lwrist -8.58139
lhand -3.26295 -22.7417
lfingers 7.12502
lthumb 22.4616 5.97215
rfemur 0 0 0
rtibia 0
rfoot 0 0
rtoes 0
lfemur -3.7898 -8.24142 -13.5651
ltibia 20.3149
lfoot -27.1756 18.4141
ltoes -53.2839
80
root -0.685661 18.6883 5.81668 3.30165 -4.59216 -1.32372
lowerback -1.54694 1.27923 -0.686344
upperback -3.00838 1.70719 0.0719877
thorax -2.2396 0.869004 0.450217
lowerneck -9.68313 -1.54447 -1.47654
upperneck 25.3494 -2.6591 2.94673
head 9.65186 -1.06102 0.979467
rclavicle -1.0312e-015 -1.11319e-014
rhumerus -52.6301 -7.7072 -83.174
rradius 45.4219
rwrist 20.5212
rhand -4.27794 -32.9106
rfingers 7.12502
rthumb 21.487 -61.7389
lclavicle -1.0312e-015 -1.11319e-014
lhumerus -43.7357 4.72161 88.7204
lradius 37.689
lwrist -8.58572
lhand -3.27956 -22.8835
lfingers 7.12502
lthumb 22.4456 5.83222
rfemur 0 0 0
rtibia 0
rfoot 0 0
rtoes 0
lfemur -3.79738 -8.13963 -13.5957
ltibia 20.3144
lfoot -27.0308 18.4022
ltoes -53.4803
